<svg height="512" viewBox="0 0 64 64" width="512" xmlns="http://www.w3.org/2000/svg" xmlns:xlink="http://www.w3.org/1999/xlink"><linearGradient id="linear-gradient" gradientUnits="userSpaceOnUse" x1="2" x2="62.407" y1="32" y2="32"><stop offset="0" stop-color="#f9a86d"/><stop offset=".503" stop-color="#f05361"/><stop offset="1" stop-color="#b72563"/></linearGradient><path d="m11 36a1 1 0 0 0 1 1h4a1 1 0 0 0 1-1v-5h2v2a1 1 0 0 0 1 1h3v2h-1a1 1 0 0 0 -1 1v16a1 1 0 0 0 1 1h1v3a1 1 0 0 0 1 1h1v3a1 1 0 0 0 2 0v-3h1a1 1 0 0 0 1-1v-3h1a1 1 0 0 0 1-1v-16a1 1 0 0 0 -1-1h-1v-2h3a1 1 0 0 0 1-1v-1h23a1 1 0 0 0 1-1v-4a1 1 0 0 0 -1-1h-3v-2h1a1 1 0 0 0 1-1v-12a1 1 0 0 0 -1-1h-1v-2h4a1 1 0 0 0 1-1v-4a1 1 0 0 0 -1-1h-32a1 1 0 0 0 -1 1v1h-2v-1a1 1 0 0 0 -1-1h-4a1 1 0 0 0 -1 1v4a1 1 0 0 0 1 1h4a1 1 0 0 0 1-1v-1h2v1a1 1 0 0 0 1 1h1v10h-2a1 1 0 0 0 -1 1v7h-3a1 1 0 0 0 -1 1v2h-2v-5a1 1 0 0 0 -1-1h-4a1 1 0 0 0 -1 1v5h-3v2h3zm9-30h-2v-2h2zm3 32h6v2h-6zm6 6h-6v-2h6zm-6 2h6v2h-6zm4 10h-2v-2h2zm2-4h-6v-2h6zm-2-16h-2v-2h2zm24-10h-2v-2h2zm-10 0v-2h1a1 1 0 0 0 1-1v-12a1 1 0 0 0 -1-1h-1v-2h6v2h-1a1 1 0 0 0 -1 1v12a1 1 0 0 0 1 1h1v2zm-4-18h2v2h-2zm-2 8h6v2h-6zm6-4v2h-6v-2zm0 8v2h-6v-2zm-4 4h2v2h-2zm16-12v2h-6v-2zm-6 4h6v2h-6zm6 6h-6v-2h6zm-2-12h-2v-2h2zm-25-6h30v2h-30zm2 4h7v2h-1a1 1 0 0 0 -1 1v12a1 1 0 0 0 1 1h1v2h-4v-7a1 1 0 0 0 -1-1h-2zm-3 12h4v6h-4zm-4 8h34v2h-23a1 1 0 0 0 -1 1v1h-2v-2h-2v2h-2v-2h-2v2h-2zm-8-3h2v10h-2z" fill="url(#linear-gradient)"/></svg>